<svg xmlns="http://www.w3.org/2000/svg" viewBox="0 0 326.071 918.954" role="img" aria-label="Une fourchette et un couteau"><title>Une fourchette et un couteau</title><g transform="translate(-12.142347,947.195497) scale(0.100000,-0.100000)"
fill="#a44e2c" stroke="none">
<path d="M3085 9446 c-27 -13 -60 -34 -72 -47 -36 -40 -103 -133 -103 -144 0
-5 -7 -23 -16 -40 -9 -16 -27 -66 -40 -110 -13 -44 -34 -109 -46 -145 -11 -36
-29 -96 -39 -135 -37 -144 -51 -191 -64 -220 -8 -17 -19 -51 -24 -76 -6 -25
-17 -58 -26 -75 -8 -16 -15 -34 -15 -40 0 -6 -16 -60 -36 -120 -20 -60 -40
-127 -44 -149 -4 -22 -15 -65 -24 -95 -30 -101 -47 -174 -56 -245 -15 -113
-37 -220 -64 -308 -14 -45 -30 -111 -36 -147 -15 -80 -45 -217 -66 -290 -27
-100 -72 -334 -79 -410 -3 -41 -15 -129 -25 -195 -10 -66 -21 -177 -24 -247
-3 -69 -13 -162 -23 -205 -39 -176 -11 -502 53 -604 37 -60 168 -149 218 -149
75 0 94 -34 71 -127 -27 -106 -5 -188 71 -273 35 -38 35 -38 36 -297 1 -151
-3 -289 -10 -333 -23 -150 -42 -340 -57 -556 -8 -122 -17 -227 -20 -235 -3 -8
-12 -72 -20 -144 -25 -225 -48 -379 -80 -525 -37 -170 -54 -261 -60 -325 -5
-58 -29 -186 -61 -331 -9 -40 -17 -85 -18 -100 -2 -16 -14 -81 -28 -144 -40
-179 -67 -328 -73 -409 -4 -41 -13 -111 -21 -155 -34 -187 -35 -199 -25 -301
19 -177 92 -348 186 -435 15 -14 35 -43 45 -65 24 -55 105 -143 148 -161 110
-45 191 -27 273 62 30 32 89 93 132 135 44 42 86 88 95 101 78 116 73 104 96
267 26 190 26 458 0 556 -10 40 -17 121 -20 240 -3 99 -11 227 -20 285 -9 70
-16 212 -18 425 -2 247 -7 336 -19 390 -11 48 -17 146 -21 310 -4 132 -11 283
-17 335 -16 142 -23 1072 -9 1200 7 58 15 137 19 175 4 39 16 88 27 110 19 39
19 55 11 210 -2 37 1 41 51 75 66 43 89 80 108 167 17 74 17 75 6 533 -4 173
-5 396 -2 495 3 99 2 234 -2 300 -9 173 -8 1039 2 1175 14 199 32 325 66 478
8 34 18 104 23 155 11 108 36 289 56 402 15 86 31 327 26 385 -13 145 -152
213 -296 146z m157 -92 c48 -30 48 -265 -2 -469 -5 -22 -10 -62 -10 -90 0 -27
-7 -77 -14 -110 -8 -33 -19 -105 -25 -160 -6 -55 -16 -113 -21 -130 -19 -60
-49 -233 -66 -375 -26 -214 -21 -1737 7 -2250 14 -267 1 -377 -50 -420 -102
-86 -258 -122 -326 -74 -16 11 -69 30 -116 42 -141 34 -305 117 -328 167 -44
95 -51 301 -21 590 5 50 14 146 21 215 6 69 17 159 24 200 8 41 19 116 25 165
15 113 57 326 93 470 8 33 20 87 27 120 7 33 28 123 47 200 19 77 39 166 44
198 9 61 40 184 82 327 14 47 30 108 35 135 6 28 20 77 32 110 11 33 32 98 44
145 13 47 33 117 45 155 12 39 29 97 37 130 123 489 190 648 298 713 20 12 96
10 118 -4z m-428 -4233 c109 -20 136 -38 136 -91 0 -41 -21 -52 -114 -60 -47
-5 -94 -11 -105 -15 -64 -20 -145 58 -121 116 29 70 57 77 204 50z m106 -261
c9 -16 5 -37 -16 -98 -22 -65 -27 -103 -34 -247 -5 -93 -14 -192 -20 -220 -6
-27 -15 -153 -20 -280 -4 -126 -11 -237 -14 -246 -4 -9 -14 -115 -21 -235 -14
-213 -21 -277 -45 -434 -6 -45 -13 -281 -15 -585 -2 -280 -8 -728 -12 -995 -4
-267 -8 -523 -8 -570 0 -47 -6 -95 -13 -107 -20 -35 -14 -52 30 -93 52 -50 79
-51 113 -6 38 50 32 95 -15 110 -42 13 -43 23 -21 256 11 111 13 319 10 895
-3 890 -2 987 12 1043 14 50 26 54 33 10 3 -18 12 -78 20 -133 27 -180 39
-346 32 -470 -3 -66 -2 -208 3 -315 6 -107 11 -266 12 -354 1 -87 5 -172 10
-190 61 -228 58 -207 59 -451 0 -344 -27 -431 -177 -564 -30 -27 -64 -63 -74
-80 -25 -42 -104 -91 -146 -91 -41 0 -95 46 -134 114 -15 28 -49 68 -74 89
-25 21 -54 55 -65 75 -11 20 -29 48 -39 62 -35 45 -60 306 -41 432 6 46 13 99
15 118 4 62 36 262 56 355 11 50 21 106 24 125 2 19 17 98 34 175 16 77 33
163 36 190 4 28 13 75 21 105 8 30 14 73 14 96 0 23 11 93 24 156 13 62 27
142 30 178 8 92 56 233 73 217 18 -19 -4 -254 -56 -587 -11 -69 -25 -168 -31
-220 -6 -52 -15 -124 -21 -160 -5 -36 -16 -119 -24 -185 -28 -234 -45 -360
-56 -400 -5 -22 -14 -85 -19 -140 -6 -55 -13 -118 -16 -139 -4 -21 -1 -62 6
-91 11 -44 10 -62 -4 -116 -23 -94 -2 -149 56 -149 20 0 32 7 40 24 21 48 65
41 88 -13 10 -25 9 -35 -4 -62 -23 -47 -20 -77 13 -110 70 -70 157 7 116 104
-8 20 -15 54 -15 75 0 41 -93 139 -148 156 -59 19 -65 271 -12 476 5 19 14 78
19 130 6 52 17 147 25 210 9 63 20 176 26 250 6 74 16 164 21 200 5 36 11 90
13 120 3 31 11 96 20 145 23 142 35 319 40 605 2 146 9 276 14 290 5 14 15 95
21 180 6 85 16 214 22 285 41 512 47 748 25 906 -20 144 -17 152 69 180 70 24
102 23 115 -1z M500 8940 c-12 -12 -20 -33 -20 -54 0 -18 -7 -53 -15 -76 -8
-23 -22 -86 -30 -139 -18 -109 -24 -139 -59 -301 -16 -71 -28 -163 -31 -240
-7 -151 -40 -423 -66 -540 -10 -47 -23 -143 -28 -215 -6 -71 -15 -153 -20
-181 -6 -28 -15 -118 -21 -200 -14 -192 -26 -322 -60 -682 -21 -214 12 -449
82 -577 39 -73 125 -130 266 -175 85 -27 112 -87 63 -142 -60 -69 -65 -92 -46
-177 10 -42 25 -85 34 -96 90 -107 127 -241 124 -450 -1 -77 -4 -387 -6 -690
-4 -516 -19 -994 -32 -1015 -3 -5 -12 -100 -20 -212 -9 -112 -19 -232 -24
-268 -5 -36 -14 -108 -20 -160 -44 -357 -56 -420 -100 -514 -11 -23 -27 -67
-36 -99 -9 -33 -31 -91 -49 -130 -17 -40 -44 -110 -59 -157 -14 -47 -36 -116
-48 -155 -63 -203 -29 -402 106 -610 27 -43 57 -109 76 -169 41 -128 65 -157
179 -211 133 -64 254 9 395 238 32 53 62 97 65 97 6 0 52 38 136 111 55 49
104 113 115 151 25 90 14 529 -16 655 -8 34 -15 82 -15 107 0 24 -9 95 -19
158 -11 62 -22 149 -26 193 -5 72 -14 117 -60 310 -21 89 -34 197 -50 420 -17
234 -31 349 -50 425 -8 30 -19 134 -25 230 -50 807 -27 1380 68 1743 34 130
35 141 22 185 -32 112 -24 159 41 227 171 184 205 318 220 883 5 194 14 399
19 455 27 250 29 454 8 582 -18 107 -20 175 -23 630 -4 729 -12 815 -74 815
-31 0 -106 -91 -124 -150 -28 -98 -27 -84 -62 -815 -8 -176 -17 -338 -20 -359
-3 -22 -10 -119 -15 -215 -5 -97 -19 -230 -30 -296 -11 -66 -20 -134 -20 -151
0 -35 -16 -54 -43 -54 -18 0 -19 5 -13 68 3 37 8 130 11 207 3 77 7 169 10
205 3 36 10 144 15 240 6 96 16 240 25 320 9 90 16 297 18 545 4 400 4 400
-29 433 -68 68 -134 32 -153 -84 -6 -38 -16 -98 -22 -134 -6 -36 -15 -256 -19
-490 -6 -299 -13 -452 -23 -515 -9 -49 -20 -169 -26 -265 -25 -396 -36 -480
-65 -480 -28 0 -27 169 4 500 31 329 40 832 19 1118 -5 81 -13 198 -16 260 -5
98 -8 114 -25 123 -52 28 -106 -29 -88 -92 6 -19 10 -91 10 -161 0 -118 7
-148 26 -117 43 70 50 -563 13 -1111 -17 -258 -20 -581 -6 -610 24 -49 93 -61
140 -25 22 16 41 168 52 415 7 161 35 531 40 541 9 13 17 172 26 514 15 530
16 544 57 503 18 -18 17 -778 -2 -912 -8 -55 -19 -218 -26 -361 -6 -143 -15
-316 -20 -385 -24 -300 -14 -359 61 -381 64 -20 107 29 121 137 5 44 21 138
34 209 28 144 50 437 59 767 5 189 27 621 40 797 6 88 28 111 46 50 15 -53 15
-457 0 -794 -7 -152 -7 -260 0 -348 12 -138 -2 -702 -21 -852 -16 -130 -30
-353 -30 -476 0 -62 -5 -141 -10 -174 -5 -33 -14 -91 -20 -128 -15 -101 -67
-182 -152 -239 -29 -19 -58 -119 -58 -197 0 -68 -20 -80 -130 -73 -56 3 -119
0 -161 -8 -84 -16 -109 -2 -109 61 0 101 -90 186 -252 238 -142 46 -188 298
-138 754 32 298 39 367 45 467 10 180 35 382 80 660 18 110 42 344 60 590 16
204 21 235 61 365 27 90 37 110 52 102 12 -8 3 -148 -11 -166 -7 -8 -14 -99
-19 -225 -14 -369 -30 -567 -69 -856 -15 -111 -23 -235 -26 -377 -4 -213 -4
-213 29 -229 28 -13 42 -14 74 -5 71 19 76 26 85 142 5 57 14 142 20 189 13
95 20 586 9 573 -12 -13 -29 -121 -35 -223 -4 -52 -15 -177 -26 -278 -10 -101
-19 -205 -19 -232 0 -58 -22 -89 -48 -68 -20 17 -11 266 18 543 48 447 53 567
49 1257 -1 60 5 102 16 132 22 56 14 91 -25 111 -39 20 -66 19 -90 -5z m568
-3638 c57 -73 -41 -144 -238 -172 -36 -5 -77 -12 -92 -15 -28 -7 -32 -5 -104
62 -18 16 -24 33 -24 62 0 57 19 71 98 72 37 1 119 4 182 8 134 7 160 4 178
-17z m-125 -259 c58 -7 72 -31 62 -108 -3 -27 -8 -68 -11 -90 -15 -128 -34
-135 -34 -13 0 68 -6 98 -20 98 -19 0 -24 -81 -26 -450 -3 -462 -16 -835 -37
-1045 -27 -269 -32 -1223 -7 -1470 11 -110 31 -321 45 -470 15 -148 33 -287
41 -308 29 -76 17 -101 -57 -115 -24 -5 -62 -21 -83 -35 -47 -33 -51 -33 -77
-4 -85 92 -92 119 -54 212 14 33 25 71 25 85 0 14 7 52 15 85 33 130 37 185
47 595 11 516 13 650 9 985 -2 145 2 306 8 365 23 223 23 615 -1 645 -42 54
-29 692 14 682 27 -6 32 152 7 262 -16 73 6 116 55 107 17 -4 53 -9 79 -13z
m42 -1768 c1 -256 5 -394 13 -422 28 -99 32 -125 42 -258 6 -77 17 -180 25
-230 8 -49 19 -137 25 -193 5 -57 12 -107 15 -112 7 -12 36 -121 41 -155 2
-16 7 -37 10 -45 3 -8 14 -76 25 -150 21 -146 28 -187 56 -325 32 -159 23
-420 -17 -501 -30 -62 -88 -124 -114 -124 -25 0 -152 -128 -179 -180 -115
-221 -276 -253 -337 -66 -11 34 -82 179 -125 256 -95 170 -118 247 -105 354
14 116 17 128 71 251 5 11 13 34 18 50 6 17 21 62 36 100 14 39 30 83 35 100
6 16 19 48 30 72 11 23 24 59 29 80 5 21 16 65 25 98 18 63 30 162 46 380 25
336 57 586 75 588 15 3 18 -245 5 -413 -6 -80 -13 -188 -16 -240 -11 -254 -39
-551 -60 -655 -6 -30 -24 -143 -33 -207 -10 -75 -22 -88 -84 -88 -55 0 -97
-27 -97 -62 0 -11 -5 -28 -10 -39 -14 -26 13 -120 47 -159 37 -44 58 -39 88
21 33 65 67 66 102 4 36 -64 31 -96 -21 -139 -57 -46 -63 -66 -40 -131 41
-121 175 -205 230 -144 33 37 27 149 -13 229 -39 78 -36 97 20 133 56 36 98
36 130 -2 77 -92 198 -99 196 -12 -1 53 -10 70 -54 94 -50 28 -65 57 -65 127
0 30 -6 100 -15 155 -8 55 -20 156 -26 225 -6 69 -18 163 -26 210 -50 281 -75
1849 -30 1935 23 45 30 -37 32 -410z m-223 -2482 c29 -26 24 -81 -7 -89 -48
-12 -80 39 -55 87 13 23 37 24 62 2z M806 4412 c-10 -235 10 -332 34 -167 17
122 5 335 -20 335 -4 0 -10 -75 -14 -168z M676 8249 c-10 -115 -18 -468 -11
-480 24 -38 38 71 37 289 -1 223 -14 321 -26 191z M124 5625 c-8 -19 4 -45 21
-48 17 -3 17 39 1 53 -13 10 -17 9 -22 -5z"/>
</g></svg>